<?xml version="1.0" encoding="UTF-8"?>
<svg version="1.1" xmlns="http://www.w3.org/2000/svg" width="208" height="208">
<path d="M0 0 C17.16 0 34.32 0 52 0 C52 17.16 52 34.32 52 52 C47.71 52 43.42 52 39 52 C39 56.29 39 60.58 39 65 C34.71 65 30.42 65 26 65 C26 69.29 26 73.58 26 78 C21.71 78 17.42 78 13 78 C13 82.29 13 86.58 13 91 C8.71 91 4.42 91 0 91 C0 95.29 0 99.58 0 104 C-4.29 104 -8.58 104 -13 104 C-13 108.29 -13 112.58 -13 117 C-17.29 117 -21.58 117 -26 117 C-26 121.29 -26 125.58 -26 130 C-30.29 130 -34.58 130 -39 130 C-39 138.58 -39 147.16 -39 156 C-34.71 156 -30.42 156 -26 156 C-26 168.87 -26 181.74 -26 195 C-38.87 195 -51.74 195 -65 195 C-65 190.71 -65 186.42 -65 182 C-69.29 182 -73.58 182 -78 182 C-78 177.71 -78 173.42 -78 169 C-82.29 169 -86.58 169 -91 169 C-91 173.29 -91 177.58 -91 182 C-95.29 182 -99.58 182 -104 182 C-104 186.29 -104 190.58 -104 195 C-108.29 195 -112.58 195 -117 195 C-117 199.29 -117 203.58 -117 208 C-129.87 208 -142.74 208 -156 208 C-156 195.13 -156 182.26 -156 169 C-151.71 169 -147.42 169 -143 169 C-143 164.71 -143 160.42 -143 156 C-138.71 156 -134.42 156 -130 156 C-130 151.71 -130 147.42 -130 143 C-125.71 143 -121.42 143 -117 143 C-117 138.71 -117 134.42 -117 130 C-121.29 130 -125.58 130 -130 130 C-130 125.71 -130 121.42 -130 117 C-134.29 117 -138.58 117 -143 117 C-143 104.13 -143 91.26 -143 78 C-130.13 78 -117.26 78 -104 78 C-104 82.29 -104 86.58 -104 91 C-95.42 91 -86.84 91 -78 91 C-78 86.71 -78 82.42 -78 78 C-73.71 78 -69.42 78 -65 78 C-65 73.71 -65 69.42 -65 65 C-60.71 65 -56.42 65 -52 65 C-52 60.71 -52 56.42 -52 52 C-47.71 52 -43.42 52 -39 52 C-39 47.71 -39 43.42 -39 39 C-34.71 39 -30.42 39 -26 39 C-26 34.71 -26 30.42 -26 26 C-21.71 26 -17.42 26 -13 26 C-13 21.71 -13 17.42 -13 13 C-8.71 13 -4.42 13 0 13 C0 8.71 0 4.42 0 0 Z " fill="#735936" transform="translate(156,0)"/>
<path d="M0 0 C17.16 0 34.32 0 52 0 C52 17.16 52 34.32 52 52 C47.71 52 43.42 52 39 52 C39 56.29 39 60.58 39 65 C34.71 65 30.42 65 26 65 C26 69.29 26 73.58 26 78 C21.71 78 17.42 78 13 78 C13 82.29 13 86.58 13 91 C8.71 91 4.42 91 0 91 C0 95.29 0 99.58 0 104 C-4.29 104 -8.58 104 -13 104 C-13 108.29 -13 112.58 -13 117 C-17.29 117 -21.58 117 -26 117 C-26 121.29 -26 125.58 -26 130 C-38.87 130 -51.74 130 -65 130 C-65 125.71 -65 121.42 -65 117 C-69.29 117 -73.58 117 -78 117 C-78 104.13 -78 91.26 -78 78 C-73.71 78 -69.42 78 -65 78 C-65 73.71 -65 69.42 -65 65 C-60.71 65 -56.42 65 -52 65 C-52 60.71 -52 56.42 -52 52 C-47.71 52 -43.42 52 -39 52 C-39 47.71 -39 43.42 -39 39 C-34.71 39 -30.42 39 -26 39 C-26 34.71 -26 30.42 -26 26 C-21.71 26 -17.42 26 -13 26 C-13 21.71 -13 17.42 -13 13 C-8.71 13 -4.42 13 0 13 C0 8.71 0 4.42 0 0 Z " fill="#DBDBDB" transform="translate(156,0)"/>
<path d="M0 0 C17.16 0 34.32 0 52 0 C52 17.16 52 34.32 52 52 C47.71 52 43.42 52 39 52 C39 39.13 39 26.26 39 13 C30.42 13 21.84 13 13 13 C13 17.29 13 21.58 13 26 C8.71 26 4.42 26 0 26 C0 30.29 0 34.58 0 39 C-4.29 39 -8.58 39 -13 39 C-13 43.29 -13 47.58 -13 52 C-17.29 52 -21.58 52 -26 52 C-26 56.29 -26 60.58 -26 65 C-30.29 65 -34.58 65 -39 65 C-39 69.29 -39 73.58 -39 78 C-43.29 78 -47.58 78 -52 78 C-52 82.29 -52 86.58 -52 91 C-60.58 91 -69.16 91 -78 91 C-78 86.71 -78 82.42 -78 78 C-73.71 78 -69.42 78 -65 78 C-65 73.71 -65 69.42 -65 65 C-60.71 65 -56.42 65 -52 65 C-52 60.71 -52 56.42 -52 52 C-47.71 52 -43.42 52 -39 52 C-39 47.71 -39 43.42 -39 39 C-34.71 39 -30.42 39 -26 39 C-26 34.71 -26 30.42 -26 26 C-21.71 26 -17.42 26 -13 26 C-13 21.71 -13 17.42 -13 13 C-8.71 13 -4.42 13 0 13 C0 8.71 0 4.42 0 0 Z " fill="#969696" transform="translate(156,0)"/>
<path d="M0 0 C8.58 0 17.16 0 26 0 C26 17.16 26 34.32 26 52 C13.13 52 0.26 52 -13 52 C-13 47.71 -13 43.42 -13 39 C-17.29 39 -21.58 39 -26 39 C-26 30.42 -26 21.84 -26 13 C-17.42 13 -8.84 13 0 13 C0 8.71 0 4.42 0 0 Z " fill="#DBDBDB" transform="translate(104,78)"/>
<path d="M0 0 C17.16 0 34.32 0 52 0 C52 17.16 52 34.32 52 52 C47.71 52 43.42 52 39 52 C39 39.13 39 26.26 39 13 C26.13 13 13.26 13 0 13 C0 8.71 0 4.42 0 0 Z " fill="#000000" transform="translate(156,0)"/>
<path d="M0 0 C4.29 0 8.58 0 13 0 C13 8.58 13 17.16 13 26 C21.58 26 30.16 26 39 26 C39 30.29 39 34.58 39 39 C26.13 39 13.26 39 0 39 C0 26.13 0 13.26 0 0 Z " fill="#000000" transform="translate(0,169)"/>
<path d="M0 0 C4.29 0 8.58 0 13 0 C13 12.87 13 25.74 13 39 C0.13 39 -12.74 39 -26 39 C-26 34.71 -26 30.42 -26 26 C-17.42 26 -8.84 26 0 26 C0 17.42 0 8.84 0 0 Z " fill="#000000" transform="translate(117,156)"/>
<path d="M0 0 C8.58 0 17.16 0 26 0 C26 8.58 26 17.16 26 26 C21.71 26 17.42 26 13 26 C13 30.29 13 34.58 13 39 C8.71 39 4.42 39 0 39 C0 26.13 0 13.26 0 0 Z " fill="#5E4626" transform="translate(39,156)"/>
<path d="M0 0 C12.87 0 25.74 0 39 0 C39 4.29 39 8.58 39 13 C30.42 13 21.84 13 13 13 C13 21.58 13 30.16 13 39 C8.71 39 4.42 39 0 39 C0 26.13 0 13.26 0 0 Z " fill="#000000" transform="translate(13,78)"/>
<path d="M0 0 C8.58 0 17.16 0 26 0 C26 8.58 26 17.16 26 26 C17.42 26 8.84 26 0 26 C0 17.42 0 8.84 0 0 Z " fill="#5E4626" transform="translate(13,169)"/>
<path d="M0 0 C4.29 0 8.58 0 13 0 C13 8.58 13 17.16 13 26 C4.42 26 -4.16 26 -13 26 C-13 21.71 -13 17.42 -13 13 C-8.71 13 -4.42 13 0 13 C0 8.71 0 4.42 0 0 Z " fill="#5E4626" transform="translate(104,156)"/>
<path d="M0 0 C8.58 0 17.16 0 26 0 C26 8.58 26 17.16 26 26 C21.71 26 17.42 26 13 26 C13 21.71 13 17.42 13 13 C8.71 13 4.42 13 0 13 C0 8.71 0 4.42 0 0 Z " fill="#000000" transform="translate(91,130)"/>
<path d="M0 0 C8.58 0 17.16 0 26 0 C26 8.58 26 17.16 26 26 C21.71 26 17.42 26 13 26 C13 21.71 13 17.42 13 13 C8.71 13 4.42 13 0 13 C0 8.71 0 4.42 0 0 Z " fill="#DBDBDB" transform="translate(78,104)"/>
<path d="M0 0 C8.58 0 17.16 0 26 0 C26 8.58 26 17.16 26 26 C21.71 26 17.42 26 13 26 C13 21.71 13 17.42 13 13 C8.71 13 4.42 13 0 13 C0 8.71 0 4.42 0 0 Z " fill="#000000" transform="translate(52,91)"/>
<path d="M0 0 C8.58 0 17.16 0 26 0 C26 4.29 26 8.58 26 13 C21.71 13 17.42 13 13 13 C13 17.29 13 21.58 13 26 C8.71 26 4.42 26 0 26 C0 17.42 0 8.84 0 0 Z " fill="#8E734E" transform="translate(26,91)"/>
<path d="M0 0 C8.58 0 17.16 0 26 0 C26 4.29 26 8.58 26 13 C17.42 13 8.84 13 0 13 C0 8.71 0 4.42 0 0 Z " fill="#725835" transform="translate(13,169)"/>
<path d="M0 0 C4.29 0 8.58 0 13 0 C13 8.58 13 17.16 13 26 C8.71 26 4.42 26 0 26 C0 17.42 0 8.84 0 0 Z " fill="#725835" transform="translate(52,130)"/>
<path d="M0 0 C8.58 0 17.16 0 26 0 C26 4.29 26 8.58 26 13 C17.42 13 8.84 13 0 13 C0 8.71 0 4.42 0 0 Z " fill="#C7C7C7" transform="translate(78,91)"/>
<path d="M0 0 C4.29 0 8.58 0 13 0 C13 4.29 13 8.58 13 13 C8.71 13 4.42 13 0 13 C0 8.71 0 4.42 0 0 Z " fill="#000000" transform="translate(39,182)"/>
<path d="M0 0 C4.29 0 8.58 0 13 0 C13 4.29 13 8.58 13 13 C8.71 13 4.42 13 0 13 C0 8.71 0 4.42 0 0 Z " fill="#000000" transform="translate(78,169)"/>
<path d="M0 0 C4.29 0 8.58 0 13 0 C13 4.29 13 8.58 13 13 C8.71 13 4.42 13 0 13 C0 8.71 0 4.42 0 0 Z " fill="#000000" transform="translate(52,169)"/>
<path d="M0 0 C4.29 0 8.58 0 13 0 C13 4.29 13 8.58 13 13 C8.71 13 4.42 13 0 13 C0 8.71 0 4.42 0 0 Z " fill="#5E4626" transform="translate(39,169)"/>
<path d="M0 0 C4.29 0 8.58 0 13 0 C13 4.29 13 8.58 13 13 C8.71 13 4.42 13 0 13 C0 8.71 0 4.42 0 0 Z " fill="#8E734E" transform="translate(13,169)"/>
<path d="M0 0 C4.29 0 8.58 0 13 0 C13 4.29 13 8.58 13 13 C8.71 13 4.42 13 0 13 C0 8.71 0 4.42 0 0 Z " fill="#000000" transform="translate(65,156)"/>
<path d="M0 0 C4.29 0 8.58 0 13 0 C13 4.29 13 8.58 13 13 C8.71 13 4.42 13 0 13 C0 8.71 0 4.42 0 0 Z " fill="#725835" transform="translate(39,156)"/>
<path d="M0 0 C4.29 0 8.58 0 13 0 C13 4.29 13 8.58 13 13 C8.71 13 4.42 13 0 13 C0 8.71 0 4.42 0 0 Z " fill="#000000" transform="translate(13,156)"/>
<path d="M0 0 C4.29 0 8.58 0 13 0 C13 4.29 13 8.58 13 13 C8.71 13 4.42 13 0 13 C0 8.71 0 4.42 0 0 Z " fill="#000000" transform="translate(26,143)"/>
<path d="M0 0 C4.29 0 8.58 0 13 0 C13 4.29 13 8.58 13 13 C8.71 13 4.42 13 0 13 C0 8.71 0 4.42 0 0 Z " fill="#8E734E" transform="translate(52,130)"/>
<path d="M0 0 C4.29 0 8.58 0 13 0 C13 4.29 13 8.58 13 13 C8.71 13 4.42 13 0 13 C0 8.71 0 4.42 0 0 Z " fill="#000000" transform="translate(39,130)"/>
<path d="M0 0 C4.29 0 8.58 0 13 0 C13 4.29 13 8.58 13 13 C8.71 13 4.42 13 0 13 C0 8.71 0 4.42 0 0 Z " fill="#000000" transform="translate(117,117)"/>
<path d="M0 0 C4.29 0 8.58 0 13 0 C13 4.29 13 8.58 13 13 C8.71 13 4.42 13 0 13 C0 8.71 0 4.42 0 0 Z " fill="#969696" transform="translate(104,117)"/>
<path d="M0 0 C4.29 0 8.58 0 13 0 C13 4.29 13 8.58 13 13 C8.71 13 4.42 13 0 13 C0 8.71 0 4.42 0 0 Z " fill="#C7C7C7" transform="translate(91,117)"/>
<path d="M0 0 C4.29 0 8.58 0 13 0 C13 4.29 13 8.58 13 13 C8.71 13 4.42 13 0 13 C0 8.71 0 4.42 0 0 Z " fill="#000000" transform="translate(78,117)"/>
<path d="M0 0 C4.29 0 8.58 0 13 0 C13 4.29 13 8.58 13 13 C8.71 13 4.42 13 0 13 C0 8.71 0 4.42 0 0 Z " fill="#000000" transform="translate(26,117)"/>
<path d="M0 0 C4.29 0 8.58 0 13 0 C13 4.29 13 8.58 13 13 C8.71 13 4.42 13 0 13 C0 8.71 0 4.42 0 0 Z " fill="#000000" transform="translate(130,104)"/>
<path d="M0 0 C4.29 0 8.58 0 13 0 C13 4.29 13 8.58 13 13 C8.71 13 4.42 13 0 13 C0 8.71 0 4.42 0 0 Z " fill="#969696" transform="translate(117,104)"/>
<path d="M0 0 C4.29 0 8.58 0 13 0 C13 4.29 13 8.58 13 13 C8.71 13 4.42 13 0 13 C0 8.71 0 4.42 0 0 Z " fill="#C7C7C7" transform="translate(104,104)"/>
<path d="M0 0 C4.29 0 8.58 0 13 0 C13 4.29 13 8.58 13 13 C8.71 13 4.42 13 0 13 C0 8.71 0 4.42 0 0 Z " fill="#C7C7C7" transform="translate(78,104)"/>
<path d="M0 0 C4.29 0 8.58 0 13 0 C13 4.29 13 8.58 13 13 C8.71 13 4.42 13 0 13 C0 8.71 0 4.42 0 0 Z " fill="#8E734E" transform="translate(52,104)"/>
<path d="M0 0 C4.29 0 8.58 0 13 0 C13 4.29 13 8.58 13 13 C8.71 13 4.42 13 0 13 C0 8.71 0 4.42 0 0 Z " fill="#000000" transform="translate(143,91)"/>
<path d="M0 0 C4.29 0 8.58 0 13 0 C13 4.29 13 8.58 13 13 C8.71 13 4.42 13 0 13 C0 8.71 0 4.42 0 0 Z " fill="#969696" transform="translate(130,91)"/>
<path d="M0 0 C4.29 0 8.58 0 13 0 C13 4.29 13 8.58 13 13 C8.71 13 4.42 13 0 13 C0 8.71 0 4.42 0 0 Z " fill="#C7C7C7" transform="translate(117,91)"/>
<path d="M0 0 C4.29 0 8.58 0 13 0 C13 4.29 13 8.58 13 13 C8.71 13 4.42 13 0 13 C0 8.71 0 4.42 0 0 Z " fill="#DBDBDB" transform="translate(104,91)"/>
<path d="M0 0 C4.29 0 8.58 0 13 0 C13 4.29 13 8.58 13 13 C8.71 13 4.42 13 0 13 C0 8.71 0 4.42 0 0 Z " fill="#969696" transform="translate(78,91)"/>
<path d="M0 0 C4.29 0 8.58 0 13 0 C13 4.29 13 8.58 13 13 C8.71 13 4.42 13 0 13 C0 8.71 0 4.42 0 0 Z " fill="#000000" transform="translate(156,78)"/>
<path d="M0 0 C4.29 0 8.58 0 13 0 C13 4.29 13 8.58 13 13 C8.71 13 4.42 13 0 13 C0 8.71 0 4.42 0 0 Z " fill="#969696" transform="translate(143,78)"/>
<path d="M0 0 C4.29 0 8.58 0 13 0 C13 4.29 13 8.58 13 13 C8.71 13 4.42 13 0 13 C0 8.71 0 4.42 0 0 Z " fill="#C7C7C7" transform="translate(130,78)"/>
<path d="M0 0 C4.29 0 8.58 0 13 0 C13 4.29 13 8.58 13 13 C8.71 13 4.42 13 0 13 C0 8.71 0 4.42 0 0 Z " fill="#C7C7C7" transform="translate(104,78)"/>
<path d="M0 0 C4.29 0 8.58 0 13 0 C13 4.29 13 8.58 13 13 C8.71 13 4.42 13 0 13 C0 8.71 0 4.42 0 0 Z " fill="#000000" transform="translate(78,78)"/>
<path d="M0 0 C4.29 0 8.58 0 13 0 C13 4.29 13 8.58 13 13 C8.71 13 4.42 13 0 13 C0 8.71 0 4.42 0 0 Z " fill="#000000" transform="translate(169,65)"/>
<path d="M0 0 C4.29 0 8.58 0 13 0 C13 4.29 13 8.58 13 13 C8.71 13 4.42 13 0 13 C0 8.71 0 4.42 0 0 Z " fill="#969696" transform="translate(156,65)"/>
<path d="M0 0 C4.29 0 8.58 0 13 0 C13 4.29 13 8.58 13 13 C8.71 13 4.42 13 0 13 C0 8.71 0 4.42 0 0 Z " fill="#C7C7C7" transform="translate(143,65)"/>
<path d="M0 0 C4.29 0 8.58 0 13 0 C13 4.29 13 8.58 13 13 C8.71 13 4.42 13 0 13 C0 8.71 0 4.42 0 0 Z " fill="#C7C7C7" transform="translate(117,65)"/>
<path d="M0 0 C4.29 0 8.58 0 13 0 C13 4.29 13 8.58 13 13 C8.71 13 4.42 13 0 13 C0 8.71 0 4.42 0 0 Z " fill="#000000" transform="translate(91,65)"/>
<path d="M0 0 C4.29 0 8.58 0 13 0 C13 4.29 13 8.58 13 13 C8.71 13 4.42 13 0 13 C0 8.71 0 4.42 0 0 Z " fill="#000000" transform="translate(182,52)"/>
<path d="M0 0 C4.29 0 8.58 0 13 0 C13 4.29 13 8.58 13 13 C8.71 13 4.42 13 0 13 C0 8.71 0 4.42 0 0 Z " fill="#969696" transform="translate(169,52)"/>
<path d="M0 0 C4.29 0 8.58 0 13 0 C13 4.29 13 8.58 13 13 C8.71 13 4.42 13 0 13 C0 8.71 0 4.42 0 0 Z " fill="#C7C7C7" transform="translate(156,52)"/>
<path d="M0 0 C4.29 0 8.58 0 13 0 C13 4.29 13 8.58 13 13 C8.71 13 4.42 13 0 13 C0 8.71 0 4.42 0 0 Z " fill="#C7C7C7" transform="translate(130,52)"/>
<path d="M0 0 C4.29 0 8.58 0 13 0 C13 4.29 13 8.58 13 13 C8.71 13 4.42 13 0 13 C0 8.71 0 4.42 0 0 Z " fill="#000000" transform="translate(104,52)"/>
<path d="M0 0 C4.29 0 8.58 0 13 0 C13 4.29 13 8.58 13 13 C8.71 13 4.42 13 0 13 C0 8.71 0 4.42 0 0 Z " fill="#969696" transform="translate(182,39)"/>
<path d="M0 0 C4.29 0 8.58 0 13 0 C13 4.29 13 8.58 13 13 C8.71 13 4.42 13 0 13 C0 8.71 0 4.42 0 0 Z " fill="#C7C7C7" transform="translate(169,39)"/>
<path d="M0 0 C4.29 0 8.58 0 13 0 C13 4.29 13 8.58 13 13 C8.71 13 4.42 13 0 13 C0 8.71 0 4.42 0 0 Z " fill="#C7C7C7" transform="translate(143,39)"/>
<path d="M0 0 C4.29 0 8.58 0 13 0 C13 4.29 13 8.58 13 13 C8.71 13 4.42 13 0 13 C0 8.71 0 4.42 0 0 Z " fill="#000000" transform="translate(117,39)"/>
<path d="M0 0 C4.29 0 8.58 0 13 0 C13 4.29 13 8.58 13 13 C8.71 13 4.42 13 0 13 C0 8.71 0 4.42 0 0 Z " fill="#C7C7C7" transform="translate(182,26)"/>
<path d="M0 0 C4.29 0 8.58 0 13 0 C13 4.29 13 8.58 13 13 C8.71 13 4.42 13 0 13 C0 8.71 0 4.42 0 0 Z " fill="#C7C7C7" transform="translate(156,26)"/>
<path d="M0 0 C4.29 0 8.58 0 13 0 C13 4.29 13 8.58 13 13 C8.71 13 4.42 13 0 13 C0 8.71 0 4.42 0 0 Z " fill="#000000" transform="translate(130,26)"/>
<path d="M0 0 C4.29 0 8.58 0 13 0 C13 4.29 13 8.58 13 13 C8.71 13 4.42 13 0 13 C0 8.71 0 4.42 0 0 Z " fill="#C7C7C7" transform="translate(169,13)"/>
<path d="M0 0 C4.29 0 8.58 0 13 0 C13 4.29 13 8.58 13 13 C8.71 13 4.42 13 0 13 C0 8.71 0 4.42 0 0 Z " fill="#000000" transform="translate(143,13)"/>
</svg>
